<svg xmlns="http://www.w3.org/2000/svg" fill="none" viewBox="0 0 668 111"><path fill="#DFDBD8" d="M434 0h3l4.895 3.649c1.082 3.735-3.467 7.65-3.75 8.996-.349 1.657 2.382 3.726 2.806 5.898 2.497 12.798-11.849 21.773-17.944 30.965 15.37 3.619 14.814 17.809 3.001 25.51-.421.713 1.433 1.901 2.51 1.998 4.215.377 19.07-8.332 22.504-11.494 3.834-3.53 7.277-9.257 10.951-13.048 9.556-9.862 43.561-45.863 53.988-49.02 1.014-.306 1.952-.636 3.031-.456-.184 1.836 1.186 3.812 1.047 5.512-.189 2.319-3.044 2.659-4.506 4.523-4.526 5.775-7.362 16.42-11.584 21.416-11.071 13.099-27.297 23.913-41.613 33.387-15.974 2.852-20.09 20.069-33.329 27.18.165 1.331 1.376 1.778 2.548 1.965 2.834.451 18.361-3.18 21.345-4.58 4.421-2.075 10.828-9.427 15.184-12.816 5.001-3.89 15.407-11.62 21.483-12.534 6.825-1.026 5.223 1.261 7.994 4.888 1.699 2.225 5.433 1.622 2.488 6.616l-14.044 14.44c3.778.22 7.482-1.32 10.948-2.542 32.316-11.4 68.337-54.412 87.463-82.537C586.156 5.36 586.075 1.81 590 0h1c2.417 3.992-1.612 13.032-3.99 16.51-1.419 2.074-4.364 3.846-5.98 6.02-13.802 18.563-28.826 36.377-45.875 52.127l.348 2.348c6.829.975 5.588-4.595 9.516-7.486 2.21-1.626 5.746-1.991 8.322-3.678 5.969-3.91 10.043-10.622 18.654-8.836l-.492 2.998c-13.054 10.743-26.094 21.26-40.361 30.127 1.751 11.182 10.994 9.467 19.572 6.084 7.498-2.957 3.758-6.58 5.8-11.2 1.456-3.296 11.907-12.31 16.489-10.017 1.736 6.643-4.346 8.867-4.957 14.398.739 2.364 17.207 4.442 20.412 4.647 19.529 1.251 40.335.313 59.977 1.022C655.791 97.117 664.5 105 668 106c-3.901-1.29-9.378-3.788-13-5-3.85-1.288-7.057-2.693-11.472-2.832-16.152-.51-33.856 3.465-51.076 2.88-10.829-.369-29.178-4.82-38.676-1.772-3.481 1.117-5.567 3.736-10.537 4.464-12.452 1.822-13.183-1.377-20.74-9.722-3.772 6.931-10.511 6.219-17.504 5.985-1.555-1.587 2.902-8.573-.504-8.02-2.758.448-8.913 5.092-12.505 6.503-1.785.7-10.211 3.409-11.558 3.51-3.706.279-7.911-4.841-8.938-4.835-.425.003-3.41 3.549-5.472 4.357-1.742.683-7.713 1.781-9.465 1.503-3.111-.493-4.161-5.009-9.026-5.048-5.451-.47-21.317 6.567-24.967 6.057-2.724-.38-5.166-3.598-4.418-6.31.685-2.483 16.445-12.961 16.37-18.698-5.592 2.547-12.67 1.91-18.232 4.759-4.544 2.327-10.931 8.923-16.249 11.75-2.568 1.366-17.489 6.88-19.376 6.355-6.921-1.925 1.73-13.976 5.392-16.34 8.853-5.712 24.081-4.178 31.447-9.552 5.677-4.14 20.328-21.148 5.003-21.088-8.54.033-16.71 15.973-20.535 3.122-1.088-.225-1.977-.047-2.959.472-.777.41-9.057 8.06-10.543 9.46-15.446 14.548-28.828 25.903-47.138 36.862-4.42 2.645-20.388 10.804-18.12-.087 1.821-8.748 13.862-17.63 19.8-24.233 9.856-10.96 19.804-23.194 28.985-33.97 14.654-17.202 35.845-35.543 57.036-44.06 1.521-.611 3.576.307 2.977-2.472zm-.005 5.005c-1.319-1.392-23.455 11.356-26.3 13.19-.966.624-7.26 4.265-5.69 5.8 4.423-.638 7.551-4.269 11.467-6.023 7.698-3.449 22.836-2.522 20.523-12.967m72 13c-.75-.755-4.565 2.306-5.469 3.021-9.762 7.726-15.882 17.445-24.092 25.909-2.384 2.457-7.625 3.285-8.434 9.055l15.478-10.012c8.527-8.366 17.693-16.81 22.517-27.973m-78 1c-1.321-1.127-10.754 3.845-12.663 4.827-25.658 13.193-46.641 34.584-63.869 56.131-1.879 2.351-20.435 20.194-18.458 22.032 10.085-1.294 15.644-7.967 23.086-13.404 24.391-17.818 44.215-37.041 64.423-59.577zm6 3c-2.157-.509-2.22 1.204-3.21 2.28-7.888 8.588-15.133 16.578-23.212 24.789-.734.746-6.255 7.25-5.568 7.92 2.82-.78 6.216-3.19 8.473-5.016 3.616-2.926 26.709-26.55 23.517-29.972M400 25c-.558-.57-4.73 1.858-4.995 2.99 2.852.457 5.058.287 4.995-2.99m70.278 58.29c-.665.53-3.353 4.499-3.79 5.688 7.942-2.035 15.76-4.096 21.028-10.961 1.73-2.255 4.344-7.016-.589-5.61-2.078.592-8.352 6.463-10.778 8.237-1.88 1.376-4.446 1.513-5.871 2.646M404 85.01c-3.151-2.155-17.017 6.844-14.99 8.99 5.278-2.18 11.421-4.168 14.99-8.99M0 97.998c2.967-3.52 5.47-7.526 8.486-11.014 12.352-14.29 25.48-28.132 37.504-42.495 5.86-7 18.668-22.962 22.488-30.513.72-1.423 1.345-3.46-.99-2.997-5.61 1.116-21.185 13.029-25.517 17.49-4.727 4.868-15.108 19.839-16.956 26.05-.417 1.401.1 1.775 1.471 1.47l2.99-1.998 1.52 2.493C12.85 70.036 20.18 49.048 25.588 40.087 31.516 30.26 52.158 12.5 62.76 8.257c7.417-2.968 14.834-1.862 11.789 7.8-.968 3.07-6.751 7.093-8.986 10.004-2.603 3.391-5.088 9.622-7.546 12.455C47.637 50.475 39.008 58.218 30 71.998c-1.866 1.263-7.129 1.677-6.995 5.995 4.472.544 5.33-3.447 6.995-5.995 4.523-3.06 24.666-20.792 28.288-19.89 1.882.469 4.563 4.04 3.567 6.168L40.014 90.517l1.466 1.466c3.48-3.778 10.054-6.595 13.448-9.557 12.3-10.736 34.295-46.377 36.853-62.178 1.01-6.232-6.09-11.996 5.591-11.128 2.397.845 3.184 10.092 2.462 12.252-.445 1.33-2.363 1.394-2.877 2.333-2.094 3.823-5.71 11.351-7.376 15.374-1.207 2.915-1.858 9.722-3.109 11.888-.884 1.532-4.821 2.482-5.25 3.25-.594 1.064.005 3.113-.73 4.757-4.221 9.43-25.949 31.296-34.555 37.461-23.271 16.671-16.394-5.992-4.51-15.51l9.083-18.906c-3.652 1.002-3.944 5.578-5.946 7.044-1.628 1.192-3.9.687-5.628 2.368-2.104 2.047-1.502 5.682-2.113 6.387-.354.409-6.769 3.074-9.293 5.21-7.602 6.43-15.931 21.806-27.53 18.97zm109.005-5.001c.99 1.17 6.423-4.996 7.66-5.83 27.008-18.195 29.841-27.054 48.935-51.065 2.662-3.347 15.752-20.654 15.923-9.155-9.4 13.45-20.276 25.917-29.932 39.146-4.935 6.76-11.606 15.31-16.031 21.969-.921 1.385-3.582 6.179-3.56 7.497-.073 1.377.899 2.357 2.294 2.29 1.031-.049 17.321-6.99 19.046-8.007 1.865-1.098 5.344-4.225 7.186-5.814 3.428-2.955 12.88-15.091 16.029-15.028l2.448 1.523c-.249 3.813-12.962 20.7-12.984 21.98-.043 2.533 7.078-.214 8.477.494.872-.001.658 2.041.476 2.477-1.838 4.396-22.749 6.467-17.973-3.463-4.737-1.335-4.797 2.768-6.703 4.043-3.591 2.403-16.479 6.597-20.736 5.897-8.732-1.435-2.37-7.15-1.605-11.504.267-1.518.612-2.812-1.467-2.462-2.953.497-7.892 7.839-11.155 9.85-9.218 5.685-18.287 2.693-12.338-8.828-6.27.435-10.873 5.973-16.78 7.712-6.488 1.91-16.599 3.28-11.187-6.198 2.195-3.845 17.411-21.523 21.013-22.978 1.026-.415 1.785-.77 2.953-.536l-.514 3.976-16.476 22.013c1.328 1.141 12.253-4.976 14.3-6.19 18.391-10.896 25.281-30.062 36.858-47.142 5.517-8.139 21.226-29.022 28.37-34.63 11.551-9.067 8.474 3.468 5.683 10.683-11.524 29.793-41.523 46.085-57.269 72.731-.938 1.588-1.187 2.71-.941 4.549m22-38c2.302.165 3.938-1.625 5.519-2.971 3.256-2.773 15.657-16.598 17.932-20.068 3.046-4.647 5.908-13.46 7.533-18.956-10.29 6.829-14.517 17.85-20.993 27.496-1.202 1.79-11.998 12.448-9.991 14.499m115.786 15.225c2.276 3.025 2.57 6.053 2.213 9.773l6.514-1.98 3.033 2.012-.546 6.966c2.206 2.41 15.33-15.141 17.95-6.584.1 4.292-5.328 9.728-3.487 12.627 1.751 2.756 13.175-4.965 13.532 1.954-7.725 2.22-21.26 9.927-21.006-3.99-.63-.752-16.178 7.519-17.52-.043-4.567 1.164-8.99 7.402-13.826 5.927l-1.526-2.232c3.172-5.206 8.954-9.974 8.368-16.663-2.737.298-3.131 3.475-5.111 4.888-2.944 2.101-17.51 11.368-20.105 11.895-3.53.717-7.284-.25-10.715.286-4.923.77-10.263 6.32-16.112 2.985-8.499-4.845 1.676-13.229 6.026-17.071 4.093-3.616 13.135-10.732 18.763-9.793 5.682.948 10.639 3.644 7.5 10.048l-5.224 6.785c7.846-.583 24.373-21.74 31.279-17.79m-54.787 22.771c.88.8 13.653-5.343 14.947-6.543 2.279-2.113 3.453-7.567 6.027-9.963-6.927.2-10.085 5.74-15.947 8.047z"/></svg>