<svg xmlns="http://www.w3.org/2000/svg" fill="none" viewBox="0 0 512 512"><path fill="#fbfbfb" d="M0 0h512v512H0z"/><path fill="#45403D" fill-rule="evenodd" d="M447.157 348.719c-14.615 5.244-71.143 9.898-77.436 13.097-8.301 4.22-18.249 12.223-28.57 20.529-10.797 8.687-22.003 17.703-32.165 23.065-9.6 5.065-65.371 25.523-72.423 23.576-25.869-7.142 6.466-51.852 20.153-60.618 16.629-10.651 39.276-14.512 61.187-18.248 21.69-3.698 42.658-7.274 56.355-17.19 21.22-15.362 75.981-78.458 18.699-78.236-12.366.048-24.524 8.952-35.611 17.072-17.531 12.84-32.384 23.718-41.141-5.49-4.069-.835-7.39-.172-11.063 1.751-2.905 1.519-33.851 29.901-39.407 35.095-57.732 53.972-107.749 96.099-176.188 136.754-16.52 9.813-76.204 40.082-67.727-.322 4.977-23.723 30.365-47.714 52.332-68.472 8.084-7.639 15.704-14.841 21.674-21.43 25.136-27.744 50.433-57.687 74.868-86.61 11.378-13.468 22.569-26.714 33.47-39.415 54.774-63.815 133.981-131.858 213.185-163.454 1.622-.647 3.405-.833 5.074-1.007 4.186-.435 7.654-.796 6.053-8.166h18.689l18.295 13.537c2.827 9.687-4.63 19.697-9.736 26.552-2.199 2.952-3.962 5.318-4.28 6.822-.703 3.319 1.948 7.083 4.786 11.112 2.419 3.434 4.973 7.061 5.702 10.769 6.601 33.574-18.278 60.057-41.473 84.746-9.606 10.225-18.923 20.143-25.595 30.129 57.45 13.426 55.369 66.069 11.215 94.638-.968 1.629 30.555 22.91 84.921-4.473zM337.633 118.504c10.631-6.807 93.371-54.1 98.299-48.936 6.195 27.769-21.105 33.872-47.664 39.81-10.503 2.348-20.89 4.67-29.044 8.296-5.617 2.497-10.8 6.02-15.989 9.547-8.334 5.664-16.684 11.339-26.871 12.797-5.33-5.172 13.588-16.789 19.81-20.61.629-.386 1.128-.692 1.459-.904m29.835 20.248c9.337-4.79 41.353-21.216 46.039-17.244l-27.963 37.13c-75.53 83.606-149.626 154.919-240.792 221.026-6.513 4.722-12.64 9.696-18.688 14.606-19.785 16.062-38.732 31.443-67.604 35.118-5.564-5.137 32.427-43.973 54.508-66.546 7.229-7.39 12.753-13.036 14.485-15.187 64.392-79.937 142.821-159.297 238.723-208.241zm58.982-1.287c1.915-3.247 3.652-6.193 9.484-4.827 11.929 12.696-74.387 100.34-87.901 111.194-8.436 6.775-21.127 15.717-31.669 18.612-2.567-2.489 18.07-26.619 20.813-29.387 26.219-26.448 50.087-52.278 75.221-79.479 3.813-4.126 7.655-8.284 11.539-12.481 1.023-1.105 1.781-2.39 2.513-3.632m-117.58 6.282c-2.087-2.117-17.679 6.892-18.672 11.091 10.662 1.698 18.908 1.066 18.672-11.091m-41.079 255.98c-7.576-7.961 44.254-41.346 56.028-33.35-11.706 15.704-30.829 23.305-48.671 30.396-2.485.988-4.945 1.966-7.357 2.954" clip-rule="evenodd"/></svg>