<svg viewBox="0 0 512 512" fill="none" xmlns="http://www.w3.org/2000/svg">
<g clip-path="url(#clip0_236_8)">
<rect width="512" height="512" fill="#fbfbfb"/>
<path d="M154.904 136H161.495L172.249 143.976C174.626 152.142 164.632 160.698 164.01 163.642C163.245 167.265 169.244 171.787 170.175 176.535C175.662 204.512 144.144 224.132 130.753 244.224C164.522 252.136 163.299 283.155 137.345 299.989C136.422 301.548 140.495 304.147 142.862 304.358C152.121 305.183 184.757 286.144 192.301 279.232C200.725 271.514 208.29 258.997 216.362 250.708C237.355 229.151 312.063 150.451 334.972 143.552C337.199 142.881 339.261 142.159 341.632 142.554C341.228 146.568 344.236 150.887 343.932 154.602C343.516 159.672 337.243 160.415 334.032 164.49C324.088 177.115 317.858 200.386 308.582 211.306C284.259 239.94 248.61 263.579 217.158 284.291C182.065 290.526 173.022 328.161 143.935 343.708C144.297 346.617 146.959 347.594 149.532 348.002C155.759 348.988 189.873 341.05 196.428 337.989C206.14 333.454 220.217 317.382 229.788 309.973C240.773 301.47 263.635 284.573 276.986 282.575C291.98 280.331 288.459 285.331 294.547 293.261C298.28 298.123 306.483 296.806 300.014 307.722L269.158 339.288C277.46 339.771 285.597 336.405 293.211 333.732C364.211 308.812 443.346 214.786 485.367 153.305C489.189 147.714 489.011 139.957 497.635 136H499.832C505.141 144.726 496.291 164.487 491.065 172.091C487.949 176.624 481.478 180.498 477.927 185.25C447.605 225.829 414.597 264.772 377.142 299.201L377.907 304.333C392.91 306.466 390.183 294.289 398.812 287.97C403.668 284.414 411.437 283.617 417.095 279.929C430.209 271.383 439.16 256.709 458.078 260.614L456.997 267.167C428.317 290.652 399.669 313.642 368.324 333.025C372.171 357.471 392.479 353.72 411.324 346.326C427.798 339.862 419.581 331.941 424.066 321.842C427.266 314.636 450.226 294.932 460.294 299.944C464.107 314.466 450.744 319.329 449.402 331.419C451.025 336.587 487.205 341.128 494.247 341.577C537.152 344.312 582.864 342.261 626.017 343.812C642.177 348.3 649.481 365.467 669 361.16V367.718C660.43 364.898 648.769 364.532 640.811 361.883C632.352 359.067 624.934 350.901 615.236 350.596C579.75 349.482 540.855 358.172 503.022 356.892C479.23 356.087 438.919 346.358 418.052 353.019C410.404 355.461 405.821 361.187 394.902 362.777C367.545 366.761 365.94 359.766 349.335 341.524C341.05 356.676 326.244 355.119 310.88 354.608C307.463 351.14 317.255 335.867 309.774 337.076C303.712 338.055 290.19 348.209 282.298 351.291C278.377 352.823 259.865 358.744 256.906 358.966C248.764 359.575 239.525 348.382 237.271 348.396C236.335 348.402 229.778 356.153 225.247 357.921C221.421 359.414 208.302 361.813 204.454 361.206C197.618 360.128 195.311 350.256 184.624 350.171C172.646 349.144 137.79 364.525 129.771 363.412C123.786 362.581 118.422 355.545 120.065 349.617C121.569 344.189 156.195 321.284 156.029 308.744C143.744 314.312 128.194 312.919 115.975 319.146C105.991 324.233 91.959 338.654 80.2754 344.833C74.6326 347.818 41.8508 359.872 37.7057 358.725C22.5004 354.517 41.5061 328.172 49.5512 323.006C69.0018 310.518 102.457 313.871 118.642 302.125C131.114 293.073 163.302 255.894 129.632 256.025C110.87 256.098 92.9211 290.944 84.5182 262.85C82.1267 262.358 80.1745 262.748 78.0154 263.881C76.3085 264.777 58.1185 281.5 54.8527 284.561C20.9185 316.363 -8.48092 341.186 -48.7088 365.142C-58.4186 370.925 -93.5006 388.76 -88.5182 364.953C-84.5162 345.83 -58.0619 326.411 -45.0179 311.978C-23.364 288.018 -1.50693 261.275 18.6619 237.719C50.8574 200.116 97.4146 160.023 143.97 141.405C147.313 140.068 151.827 142.074 150.51 136L154.904 136ZM154.893 146.941C151.996 143.898 103.362 171.765 97.1137 175.776C94.991 177.139 81.1627 185.098 84.6117 188.453C94.3281 187.059 101.202 179.122 109.804 175.287C126.717 167.748 159.974 169.774 154.893 146.941ZM313.076 175.359C311.429 173.708 303.048 180.4 301.062 181.964C279.614 198.852 266.17 220.098 248.132 238.6C242.895 243.972 231.38 245.782 229.602 258.395L263.607 236.509C282.341 218.22 302.478 199.762 313.076 175.359ZM141.712 177.546C138.81 175.081 118.086 185.951 113.891 188.097C57.5208 216.937 11.4207 263.699 -26.4278 310.801C-30.5574 315.941 -71.3228 354.944 -66.9812 358.962C-44.8231 356.135 -32.6103 341.548 -16.2601 329.662C37.3265 290.71 80.8796 248.689 125.275 199.425L141.712 177.546ZM154.894 184.105C150.155 182.992 150.016 186.735 147.842 189.089C130.511 207.861 114.594 225.327 96.8457 243.276C95.233 244.907 83.103 259.125 84.6116 260.592C90.8081 258.886 98.2679 253.617 103.226 249.625C111.17 243.229 161.905 191.586 154.894 184.105ZM80.2069 190.65C78.9801 189.403 69.8155 194.711 69.232 197.186C75.4988 198.186 80.3459 197.814 80.2069 190.65ZM234.607 318.074C233.146 319.23 227.24 327.908 226.28 330.507C243.73 326.058 260.904 321.553 272.478 306.546C276.28 301.616 282.022 291.21 271.184 294.283C266.62 295.577 252.835 308.41 247.506 312.29C243.375 315.298 237.737 315.596 234.607 318.074ZM88.9941 321.834C82.0731 317.122 51.6083 336.794 56.0612 341.485C67.6571 336.72 81.1547 332.375 88.9941 321.834Z" fill="#45403D"/>
</g>
<defs>
<clipPath id="clip0_236_8">
<rect width="512" height="512" fill="#000"/>
</clipPath>
</defs>
</svg>
