<svg xmlns="http://www.w3.org/2000/svg" fill="none" viewBox="0 0 512 512"><g clip-path="url(#a)"><path fill="#fbfbfb" d="M0 0h512v512H0z"/><path fill="#45403D" d="M154.904 136h6.591l10.754 7.976c2.377 8.166-7.617 16.722-8.239 19.666-.765 3.623 5.234 8.145 6.165 12.893 5.487 27.977-26.031 47.597-39.422 67.689 33.769 7.912 32.546 38.931 6.592 55.765-.923 1.559 3.15 4.158 5.517 4.369 9.259.825 41.895-18.214 49.439-25.126 8.424-7.718 15.989-20.235 24.061-28.524 20.993-21.557 95.701-100.257 118.61-107.156 2.227-.671 4.289-1.393 6.66-.998-.404 4.014 2.604 8.333 2.3 12.048-.416 5.07-6.689 5.813-9.9 9.888-9.944 12.625-16.174 35.896-25.45 46.816-24.323 28.634-59.972 52.273-91.424 72.985-35.093 6.235-44.136 43.87-73.223 59.417.362 2.909 3.024 3.886 5.597 4.294 6.227.986 40.341-6.952 46.896-10.013 9.712-4.535 23.789-20.607 33.36-28.016 10.985-8.503 33.847-25.4 47.198-27.398 14.994-2.244 11.473 2.756 17.561 10.686 3.733 4.862 11.936 3.545 5.467 14.461l-30.856 31.566c8.302.483 16.439-2.883 24.053-5.556 71-24.92 150.135-118.946 192.156-180.427 3.822-5.591 3.644-13.348 12.268-17.305h2.197c5.309 8.726-3.541 28.487-8.767 36.091-3.116 4.533-9.587 8.407-13.138 13.159-30.322 40.579-63.33 79.522-100.785 113.951l.765 5.132c15.003 2.133 12.276-10.044 20.905-16.363 4.856-3.556 12.625-4.353 18.283-8.041 13.114-8.546 22.065-23.22 40.983-19.315l-1.081 6.553c-28.68 23.485-57.328 46.475-88.673 65.858 3.847 24.446 24.155 20.695 43 13.301 16.474-6.464 8.257-14.385 12.742-24.484 3.2-7.206 26.16-26.91 36.228-21.898 3.813 14.522-9.55 19.385-10.892 31.475 1.623 5.168 37.803 9.709 44.845 10.158 42.905 2.735 88.617.684 131.77 2.235 16.16 4.488 23.464 21.655 42.983 17.348v6.558c-8.57-2.82-20.231-3.186-28.189-5.835-8.459-2.816-15.877-10.982-25.575-11.287-35.486-1.114-74.381 7.576-112.214 6.296-23.792-.805-64.103-10.534-84.97-3.873-7.648 2.442-12.231 8.168-23.15 9.758-27.357 3.984-28.962-3.011-45.567-21.253-8.285 15.152-23.091 13.595-38.455 13.084-3.417-3.468 6.375-18.741-1.106-17.532-6.062.979-19.584 11.133-27.476 14.215-3.921 1.532-22.433 7.453-25.392 7.675-8.142.609-17.381-10.584-19.635-10.57-.936.006-7.493 7.757-12.024 9.525-3.826 1.493-16.945 3.892-20.793 3.285-6.836-1.078-9.143-10.95-19.83-11.035-11.978-1.027-46.834 14.354-54.853 13.241-5.985-.831-11.349-7.867-9.706-13.795 1.504-5.428 36.13-28.333 35.964-40.873-12.285 5.568-27.835 4.175-40.054 10.402-9.984 5.087-24.016 19.508-35.7 25.687-5.642 2.985-38.424 15.039-42.57 13.892-15.205-4.208 3.801-30.553 11.846-35.719 19.45-12.488 52.906-9.135 69.091-20.881 12.472-9.052 44.66-46.231 10.99-46.1-18.762.073-36.71 34.919-45.114 6.825-2.391-.492-4.344-.102-6.503 1.031-1.707.896-19.897 17.619-23.162 20.68-33.934 31.802-63.334 56.625-103.562 80.581-9.71 5.783-44.792 23.618-39.81-.189 4.003-19.123 30.457-38.542 43.501-52.975 21.654-23.96 43.511-50.703 63.68-74.259 32.195-37.603 78.753-77.696 125.308-96.314 3.343-1.337 7.857.669 6.54-5.405zm-.011 10.941c-2.897-3.043-51.531 24.824-57.78 28.835-2.122 1.363-15.95 9.322-12.501 12.677 9.716-1.394 16.59-9.331 25.192-13.166 16.913-7.539 50.17-5.513 45.089-28.346m158.183 28.418c-1.647-1.651-10.028 5.041-12.014 6.605-21.448 16.888-34.892 38.134-52.93 56.636-5.237 5.372-16.752 7.182-18.53 19.795l34.005-21.886c18.734-18.289 38.871-36.747 49.469-61.15m-171.364 2.187c-2.902-2.465-23.626 8.405-27.821 10.551-56.37 28.84-102.47 75.602-140.319 122.704-4.13 5.14-44.895 44.143-40.553 48.161 22.158-2.827 34.37-17.414 50.72-29.3 53.588-38.952 97.14-80.973 141.536-130.237zm13.182 6.559c-4.739-1.113-4.878 2.63-7.052 4.984-17.331 18.772-33.248 36.238-50.996 54.187-1.613 1.631-13.743 15.849-12.234 17.316 6.196-1.706 13.656-6.975 18.614-10.967 7.944-6.396 58.679-58.039 51.668-65.52m-74.687 6.545c-1.227-1.247-10.391 4.061-10.975 6.536 6.267 1 11.114.628 10.975-6.536m154.4 127.424c-1.461 1.156-7.367 9.834-8.327 12.433 17.45-4.449 34.624-8.954 46.198-23.961 3.802-4.93 9.544-15.336-1.294-12.263-4.564 1.294-18.349 14.127-23.678 18.007-4.131 3.008-9.769 3.306-12.899 5.784m-145.613 3.76c-6.92-4.712-37.386 14.96-32.933 19.651 11.596-4.765 25.094-9.11 32.933-19.651"/></g><defs><clipPath id="a"><path fill="#000" d="M0 0h512v512H0z"/></clipPath></defs></svg>